<?xml version="1.0" encoding="UTF-8" standalone="no"?>
<!-- Created with Inkscape (http://www.inkscape.org/) -->

<svg
   width="103.27512mm"
   height="24.021469mm"
   viewBox="0 0 103.27512 24.021469"
   version="1.1"
   id="svg1"
   sodipodi:docname="Funzlbredl.svg"
   inkscape:version="1.4.2 (ebf0e940d0, 2025-05-08)"
   xmlns:inkscape="http://www.inkscape.org/namespaces/inkscape"
   xmlns:sodipodi="http://sodipodi.sourceforge.net/DTD/sodipodi-0.dtd"
   xmlns="http://www.w3.org/2000/svg"
   xmlns:svg="http://www.w3.org/2000/svg">
  <sodipodi:namedview
     id="namedview1"
     pagecolor="#ffffff"
     bordercolor="#666666"
     borderopacity="1.0"
     inkscape:showpageshadow="2"
     inkscape:pageopacity="0.0"
     inkscape:pagecheckerboard="0"
     inkscape:deskcolor="#d1d1d1"
     inkscape:document-units="mm"
     inkscape:zoom="2.262702"
     inkscape:cx="207.27431"
     inkscape:cy="80.434807"
     inkscape:window-width="1852"
     inkscape:window-height="1164"
     inkscape:window-x="0"
     inkscape:window-y="0"
     inkscape:window-maximized="1"
     inkscape:current-layer="layer1" />
  <defs
     id="defs1" />
  <g
     inkscape:label="Layer 1"
     inkscape:groupmode="layer"
     id="layer1"
     transform="translate(-52.718043,-46.688081)">
    <path
       style="font-size:25.4px;line-height:1.25;font-family:TSCu_Comic;-inkscape-font-specification:TSCu_Comic;text-align:center;letter-spacing:0px;word-spacing:0px;text-anchor:middle;stroke-width:0.264583"
       d="m 72.411569,54.514237 c -0.03774,0.639152 -0.443465,0.935886 -1.217175,0.890201 -1.227845,-0.0725 -2.847511,-0.08374 -4.858998,-0.03373 -2.68825,0.07757 -4.152629,0.294914 -4.393136,0.652038 -0.148462,0.227532 -0.3103,0.538666 -0.485514,0.933403 -0.116808,0.263158 -0.285598,0.69203 -0.50637,1.286618 l -0.429191,1.265858 5.970689,-0.356348 c 0.504594,0.02979 0.738022,0.364267 0.700282,1.00342 -0.03277,0.555053 -0.604245,0.943271 -1.714416,1.164653 -0.461086,0.09092 -1.190296,0.149137 -2.18763,0.17464 -0.94588,0.01167 -2.074793,-0.02123 -3.386737,-0.0987 -0.383137,1.057598 -0.766338,2.402124 -1.149602,4.03358 -0.319894,1.415779 -0.499208,2.451654 -0.537941,3.107626 -0.03476,0.588693 -0.392011,0.922046 -1.071755,1.000058 -0.622332,-0.03675 -0.912643,-0.408335 -0.870931,-1.114766 0.03575,-0.605512 0.268041,-1.823922 0.696863,-3.65523 0.450608,-1.914413 0.933333,-3.658146 1.448176,-5.231198 0.698002,-2.102346 1.378096,-3.758472 2.040281,-4.968377 0.285071,-0.540156 1.993865,-0.894976 5.126382,-1.06446 2.25193,-0.120208 4.160016,-0.134132 5.724256,-0.04177 0.302756,0.01787 0.566907,0.117863 0.792453,0.299968 0.224552,0.198922 0.32789,0.44976 0.310014,0.752516 z m 5.654267,7.177936 -0.943607,3.472256 c -0.268989,0.955973 -0.4092,1.770893 -0.420631,2.44476 l -0.0086,0.5054 c -0.0014,0.08423 0.01187,0.295102 0.03982,0.632607 l 0.08479,0.961975 c -0.01029,0.606479 -0.318671,0.904575 -0.925152,0.894287 -0.45486,-0.0077 -0.754528,-0.223441 -0.899003,-0.647182 -0.01542,-0.08452 -0.06738,-0.498262 -0.155885,-1.24123 -0.325517,0.314657 -0.895881,0.658863 -1.711094,1.032619 -0.798081,0.357195 -1.534054,0.530076 -2.207921,0.518645 -0.977106,-0.01657 -1.711786,-0.416621 -2.20404,-1.200142 -0.443143,-0.698429 -0.656142,-1.553044 -0.638995,-2.563844 0.01886,-1.11188 0.292994,-2.371093 0.822401,-3.777639 0.528548,-1.356007 1.037099,-2.029866 1.525652,-2.021578 0.2527,0.0043 0.461711,0.100495 0.627034,0.288686 0.182741,0.154764 0.271254,0.400612 0.265539,0.737545 -0.316957,0.803496 -0.635629,1.708072 -0.956016,2.713728 -0.320387,1.005656 -0.484725,1.75276 -0.493012,2.241313 -0.0086,0.5054 0.09364,0.936848 0.306648,1.294343 0.264403,0.307813 0.556647,0.464434 0.876734,0.469863 0.606479,0.01029 1.352448,-0.255109 2.237905,-0.796187 0.766102,-0.458846 1.355028,-0.903846 1.766778,-1.335001 l 1.245153,-4.85739 c 0.0063,-0.370627 0.278957,-0.551368 0.818071,-0.542223 0.286393,0.0049 0.521389,0.05941 0.704988,0.163623 0.166466,0.120784 0.24727,0.324373 0.242412,0.610766 z m 9.930496,2.278019 c 0.06274,0.823218 0.02724,1.687719 -0.106506,2.593504 -0.04543,0.290727 -0.129746,0.7365 -0.252937,1.337317 -0.10639,0.599536 -0.221742,1.08147 -0.346057,1.445801 -0.167034,0.468975 -0.401754,0.714986 -0.704161,0.738033 -0.672015,0.05121 -1.031069,-0.225586 -1.077163,-0.830397 0.211343,-0.996188 0.370928,-1.895492 0.478753,-2.697913 0.140301,-1.041468 0.181642,-1.94021 0.124025,-2.696227 -0.0653,-0.856819 -0.307955,-1.269223 -0.727964,-1.237213 -0.487211,0.03713 -1.40058,0.579886 -2.740109,1.628258 -1.356329,1.049654 -2.05209,1.787046 -2.087282,2.212177 l -0.298974,3.393926 c -0.04815,0.476812 -0.341034,0.735704 -0.878643,0.776677 -0.571213,0.04353 -0.878586,-0.220306 -0.922119,-0.791518 l 0.72104,-8.165968 c 0.03135,-0.475532 0.341035,-0.735705 0.929045,-0.780519 0.201605,-0.01537 0.403132,0.07911 0.604581,0.283434 0.143365,0.107359 0.22273,0.261841 0.238095,0.463446 l 0.0077,0.100802 -0.125247,1.682442 c 1.993929,-1.774165 3.721709,-2.716944 5.183341,-2.828338 0.420009,-0.03201 0.830745,0.257751 1.232208,0.869274 0.416983,0.593445 0.666446,1.427779 0.748391,2.503002 z m 8.026345,-4.86069 c 0.06945,0.312509 -0.119699,0.820566 -0.567443,1.524172 l -4.076294,6.239244 5.03304,-1.118482 c 0.23027,-0.05117 0.455971,-0.0064 0.677104,0.13432 0.177272,0.09869 0.313425,0.284181 0.408459,0.556484 0.124275,0.559227 -0.109648,0.904633 -0.70177,1.036219 l -7.450872,1.655793 c -0.526331,0.116965 -0.829704,-0.0055 -0.910117,-0.367331 -0.05483,-0.246717 0.133407,-0.720051 0.564702,-1.420002 l 3.917298,-6.255691 -4.514933,1.003344 c -0.493435,0.109655 -0.835186,-0.10782 -1.025253,-0.652426 -0.116966,-0.526331 0.09685,-0.88453 0.64146,-1.074597 l 7.105468,-1.579034 c 0.526331,-0.116965 0.826048,-0.01097 0.899151,0.317987 z m 3.572334,-7.971273 0.762219,15.134083 c 0.0279,0.511686 -0.26241,0.835426 -0.870845,0.971221 -0.180889,0.04037 -0.371907,-0.0033 -0.573054,-0.131059 C 98.801748,66.999269 98.70015,66.81478 98.608539,66.559008 L 97.796983,51.435936 c -0.02965,-0.442238 0.218643,-0.722079 0.744869,-0.839523 0.246667,-0.05505 0.456847,-0.04154 0.630539,0.04054 0.190136,0.07841 0.331009,0.245501 0.42262,0.501273 z m 13.081439,7.574147 c 0.27595,2.155944 -0.40854,3.908237 -2.05348,5.256878 -1.16963,0.948073 -2.42296,1.507676 -3.75998,1.678807 -0.63508,0.08129 -0.98899,-0.162186 -1.06172,-0.730419 -0.0813,-0.635085 0.16219,-0.988992 0.73042,-1.061723 0.9192,-0.117653 1.82817,-0.514274 2.72692,-1.189864 1.2909,-0.929622 1.84757,-2.088012 1.67002,-3.47517 -0.13476,-1.052903 -0.68681,-1.517319 -1.65615,-1.393249 -0.81893,0.104817 -1.67262,0.468883 -2.56107,1.092196 l -1.35454,0.963247 -0.18173,5.348542 c -0.0194,0.512078 -0.32157,0.805552 -0.9065,0.880421 -0.23398,0.02995 -0.44008,-0.05409 -0.6183,-0.252098 -0.15723,-0.166727 -0.25082,-0.36708 -0.28077,-0.601058 l 0.59191,-15.083372 c 0.0489,-0.413941 0.33653,-0.688563 0.86278,-0.823866 0.21727,-0.02781 0.41909,0.0228 0.60547,0.151822 0.17181,0.147875 0.28231,0.414009 0.33151,0.798402 l -0.28884,7.298717 1.21115,-0.690096 c 0.80743,-0.460063 1.70417,-0.7532 2.69022,-0.879409 0.70193,-0.08984 1.33655,0.02428 1.90384,0.342355 0.78924,0.459537 1.25552,1.249183 1.39884,2.368937 z m 11.22861,-2.293244 c -2.7e-4,0.471775 -0.15209,0.77497 -0.45546,0.909585 -0.20225,0.100976 -0.52241,0.151336 -0.96048,0.15108 -1.55012,-9.33e-4 -2.99946,0.545815 -4.34803,1.640245 -1.01141,0.808165 -1.62684,1.549166 -1.84627,2.223001 l -0.45669,3.007296 c -0.0677,0.438037 -0.37948,0.656893 -0.9355,0.656568 -0.52233,-3.05e-4 -0.82544,-0.286917 -0.90935,-0.859835 l 1.29347,-7.732977 c 0.0846,-0.539121 0.37958,-0.808534 0.88505,-0.808239 0.58972,3.45e-4 0.88439,0.32065 0.88402,0.960915 l -0.22829,1.41519 c 0.9272,-0.858762 1.79526,-1.431124 2.60419,-1.717085 1.02801,-0.370079 2.19913,-0.554735 3.51336,-0.553967 0.64026,3.74e-4 0.96025,0.236448 0.95998,0.708223 z m 10.31722,7.232381 c -0.0487,0.621507 -0.86555,1.123623 -2.45045,1.506348 -1.30823,0.303018 -2.37389,0.422251 -3.19696,0.357699 -2.63721,-0.206831 -3.86557,-1.460876 -3.68509,-3.762134 0.11593,-1.478181 0.72525,-2.782459 1.82795,-3.912836 1.25157,-1.304611 2.71724,-1.891046 4.39699,-1.759306 1.07504,0.08431 1.92298,0.370527 2.54383,0.85864 0.62085,0.488114 0.90954,1.00933 0.86607,1.563647 -0.079,1.007851 -1.1498,1.946374 -3.21227,2.815569 -1.73014,0.726251 -2.89756,1.065663 -3.50227,1.018236 -0.47033,-0.03689 -0.6831,-0.340888 -0.63831,-0.912003 0.0145,-0.184773 0.93191,-0.569142 2.75232,-1.153108 1.8385,-0.599447 2.77685,-1.142734 2.81505,-1.629861 0.0158,-0.201571 -0.10409,-0.396883 -0.35966,-0.585936 -0.29313,-0.141295 -0.75885,-0.236974 -1.39716,-0.287035 -1.25981,-0.0988 -2.29418,0.267944 -3.10309,1.100247 -0.73645,0.770382 -1.15211,1.760283 -1.24696,2.969704 -0.0461,0.587913 0.0863,1.054619 0.39722,1.400119 0.31092,0.345501 0.83593,0.547234 1.57502,0.605199 0.83987,0.06587 1.63413,-0.04085 2.38277,-0.320148 l 2.50776,-0.944127 c 0.53752,0.04215 0.77993,0.399182 0.72724,1.071086 z m 13.12831,-12.193846 -3.80003,14.814815 c -0.10218,0.397017 -0.43863,0.570708 -1.00934,0.521071 -0.53715,-0.04672 -0.77798,-0.389007 -0.7225,-1.026862 l 0.15765,-0.645884 -1.32244,0.620685 c -0.89841,0.412331 -1.8344,0.576158 -2.80797,0.491483 -0.60429,-0.05255 -1.18959,-0.323324 -1.75592,-0.812313 -0.80205,-0.695527 -1.15344,-1.614006 -1.05417,-2.755435 0.12409,-1.426786 0.7919,-2.687895 2.00341,-3.783327 1.41659,-1.314373 3.18239,-1.879584 5.29739,-1.695635 l 0.57911,0.05037 c 0.1175,0.01022 0.2755,0.04087 0.47401,0.09196 l 0.57035,0.151082 1.61153,-6.278207 c 0.0351,-0.402857 0.37444,-0.610119 1.01811,-0.621785 0.26857,0.02336 0.48568,0.152176 0.65135,0.386448 0.0876,0.159831 0.12406,0.323676 0.10946,0.491534 z m -3.85027,7.80859 c -0.0919,-0.109474 -0.6415,-0.208008 -1.64864,-0.295603 -1.47715,-0.128473 -2.69668,0.281298 -3.65859,1.229311 -0.79332,0.759724 -1.23743,1.685122 -1.33232,2.776194 -0.0423,0.486786 0.10326,0.854615 0.43677,1.103488 0.23573,0.206541 0.50466,0.322951 0.80681,0.34923 0.68821,0.05986 1.5494,-0.11893 2.58355,-0.53637 0.68384,-0.278778 1.2958,-0.60609 1.83587,-0.981935 z m 8.67829,-7.660295 -3.43568,14.758643 c -0.11413,0.499573 -0.48236,0.730838 -1.10467,0.693794 -0.18501,-0.01101 -0.35661,-0.105622 -0.51479,-0.283827 -0.0761,-0.139561 -0.12294,-0.344897 -0.14056,-0.616008 l 3.38522,-14.761646 c 0.0933,-0.433297 0.40908,-0.633927 0.94729,-0.601889 0.25229,0.01502 0.45062,0.0859 0.59499,0.212645 0.16118,0.127747 0.25058,0.327177 0.2682,0.598288 z"
       id="text1"
       aria-label="Funzlbredl"
       sodipodi:nodetypes="ssccscccsccccscsccccccsccccccscccscsccccsscscccccccccccsccsscccsccsccccscccscccccsssccsccssccscccscscscssscsscccscccccccsscsscccccsccscccssscsscssscsccscscccsccsccscccscscsscccccccscscscccccscccscc" />
  </g>
</svg>
